<svg width="163" height="48" viewBox="0 0 163 48" fill="none" xmlns="http://www.w3.org/2000/svg">
<g clip-path="url(#clip0_929_270)">
<path d="M161.821 42.322C161.821 44.8612 159.764 46.918 157.22 46.918H6.65758C4.11478 46.918 2.05078 44.8612 2.05078 42.322V5.67036C2.05078 3.13236 4.11478 1.06836 6.65758 1.06836H157.219C159.764 1.06836 161.82 3.13236 161.82 5.67036L161.821 42.322Z" fill="black"/>
<path d="M37.1353 23.7414C37.1005 19.8738 40.3021 17.9922 40.4485 17.9046C38.6353 15.261 35.8249 14.8998 34.8373 14.871C32.4769 14.6226 30.1873 16.2834 28.9849 16.2834C27.7585 16.2834 25.9069 14.895 23.9113 14.9358C21.3433 14.9754 18.9409 16.4622 17.6233 18.771C14.9041 23.4786 16.9321 30.3966 19.5373 34.2018C20.8405 36.0654 22.3633 38.1462 24.3565 38.073C26.3065 37.9926 27.0349 36.8298 29.3881 36.8298C31.7197 36.8298 32.4037 38.073 34.4365 38.0262C36.5293 37.9926 37.8469 36.1542 39.1045 34.2738C40.6105 32.1378 41.2153 30.0342 41.2393 29.9262C41.1901 29.9094 37.1749 28.377 37.1353 23.7414Z" fill="white"/>
<path d="M33.2969 12.3677C34.3457 11.0561 35.0633 9.27174 34.8641 7.46094C33.3461 7.52814 31.4477 8.51094 30.3545 9.79374C29.3873 10.9241 28.5233 12.7769 28.7465 14.5193C30.4517 14.6465 32.2025 13.6589 33.2969 12.3677Z" fill="white"/>
<path d="M65.357 37.8055H62.6318L61.139 33.1147H55.9502L54.5282 37.8055H51.875L57.0158 21.8359H60.191L65.357 37.8055ZM60.689 31.1467L59.339 26.9767C59.1962 26.5507 58.9286 25.5475 58.5338 23.9683H58.4858C58.3286 24.6475 58.0754 25.6507 57.7274 26.9767L56.4014 31.1467H60.689Z" fill="white"/>
<path d="M78.5775 31.9061C78.5775 33.8645 78.0483 35.4125 76.9899 36.5489C76.0419 37.5605 74.8647 38.0657 73.4595 38.0657C71.9427 38.0657 70.8531 37.5209 70.1895 36.4313H70.1415V42.4973H67.5831V30.0809C67.5831 28.8497 67.5507 27.5861 67.4883 26.2901H69.7383L69.8811 28.1153H69.9291C70.7823 26.7401 72.0771 26.0537 73.8147 26.0537C75.1731 26.0537 76.3071 26.5901 77.2143 27.6641C78.1239 28.7393 78.5775 30.1529 78.5775 31.9061ZM75.9711 31.9997C75.9711 30.8789 75.7191 29.9549 75.2127 29.2277C74.6595 28.4693 73.9167 28.0901 72.9855 28.0901C72.3543 28.0901 71.7807 28.3013 71.2683 28.7177C70.7547 29.1377 70.4187 29.6861 70.2615 30.3653C70.1823 30.6821 70.1427 30.9413 70.1427 31.1453V33.0653C70.1427 33.9029 70.3995 34.6097 70.9131 35.1869C71.4267 35.7641 72.0939 36.0521 72.9147 36.0521C73.8783 36.0521 74.6283 35.6801 75.1647 34.9385C75.7023 34.1957 75.9711 33.2165 75.9711 31.9997Z" fill="white"/>
<path d="M91.8224 31.9061C91.8224 33.8645 91.2932 35.4125 90.2336 36.5489C89.2868 37.5605 88.1096 38.0657 86.7044 38.0657C85.1876 38.0657 84.098 37.5209 83.4356 36.4313H83.3876V42.4973H80.8292V30.0809C80.8292 28.8497 80.7968 27.5861 80.7344 26.2901H82.9844L83.1272 28.1153H83.1752C84.0272 26.7401 85.322 26.0537 87.0608 26.0537C88.418 26.0537 89.552 26.5901 90.4616 27.6641C91.3676 28.7393 91.8224 30.1529 91.8224 31.9061ZM89.216 31.9997C89.216 30.8789 88.9628 29.9549 88.4564 29.2277C87.9032 28.4693 87.1628 28.0901 86.2304 28.0901C85.598 28.0901 85.0256 28.3013 84.512 28.7177C83.9984 29.1377 83.6636 29.6861 83.5064 30.3653C83.4284 30.6821 83.3876 30.9413 83.3876 31.1453V33.0653C83.3876 33.9029 83.6444 34.6097 84.1556 35.1869C84.6692 35.7629 85.3364 36.0521 86.1596 36.0521C87.1232 36.0521 87.8732 35.6801 88.4096 34.9385C88.9472 34.1957 89.216 33.2165 89.216 31.9997Z" fill="white"/>
<path d="M106.63 33.3268C106.63 34.6852 106.158 35.7904 105.211 36.6436C104.171 37.576 102.723 38.0416 100.861 38.0416C99.1431 38.0416 97.7655 37.7104 96.7227 37.0468L97.3155 34.9144C98.4387 35.5936 99.6711 35.9344 101.014 35.9344C101.977 35.9344 102.727 35.716 103.266 35.2816C103.803 34.8472 104.07 34.264 104.07 33.5368C104.07 32.8888 103.849 32.3428 103.407 31.9C102.966 31.4572 102.231 31.0456 101.203 30.6652C98.4075 29.6224 97.0107 28.0948 97.0107 26.086C97.0107 24.7732 97.5003 23.6968 98.4807 22.8592C99.4575 22.0204 100.761 21.6016 102.39 21.6016C103.843 21.6016 105.051 21.8548 106.014 22.36L105.375 24.4456C104.475 23.956 103.457 23.7112 102.318 23.7112C101.418 23.7112 100.715 23.9332 100.211 24.3748C99.7851 24.7696 99.5715 25.2508 99.5715 25.8208C99.5715 26.452 99.8151 26.974 100.305 27.3844C100.731 27.7636 101.505 28.174 102.628 28.6168C104.002 29.17 105.011 29.8168 105.66 30.5584C106.307 31.2976 106.63 32.2228 106.63 33.3268Z" fill="white"/>
<path d="M115.087 28.2101H112.267V33.8009C112.267 35.2229 112.764 35.9333 113.76 35.9333C114.217 35.9333 114.596 35.8937 114.896 35.8145L114.967 37.7573C114.463 37.9457 113.799 38.0405 112.977 38.0405C111.967 38.0405 111.177 37.7321 110.607 37.1165C110.04 36.4997 109.754 35.4653 109.754 34.0121V28.2077H108.074V26.2877H109.754V24.1793L112.267 23.4209V26.2877H115.087V28.2101Z" fill="white"/>
<path d="M127.814 31.9527C127.814 33.7227 127.308 35.1759 126.297 36.3123C125.238 37.4823 123.831 38.0655 122.078 38.0655C120.388 38.0655 119.043 37.5051 118.04 36.3843C117.037 35.2635 116.535 33.8487 116.535 32.1435C116.535 30.3591 117.051 28.8975 118.087 27.7611C119.12 26.6235 120.514 26.0547 122.268 26.0547C123.957 26.0547 125.317 26.6151 126.343 27.7371C127.324 28.8255 127.814 30.2307 127.814 31.9527ZM125.16 32.0355C125.16 30.9735 124.933 30.0627 124.473 29.3031C123.937 28.3839 123.17 27.9255 122.176 27.9255C121.148 27.9255 120.367 28.3851 119.83 29.3031C119.371 30.0639 119.144 30.9891 119.144 32.0835C119.144 33.1455 119.371 34.0563 119.83 34.8147C120.384 35.7339 121.156 36.1923 122.154 36.1923C123.13 36.1923 123.897 35.7243 124.45 34.7907C124.922 34.0167 125.16 33.0963 125.16 32.0355Z" fill="white"/>
<path d="M136.13 28.5401C135.876 28.4933 135.606 28.4693 135.323 28.4693C134.423 28.4693 133.727 28.8089 133.238 29.4893C132.812 30.0893 132.598 30.8477 132.598 31.7633V37.8053H130.041L130.065 29.9165C130.065 28.5893 130.032 27.3809 129.969 26.2913H132.197L132.291 28.4945H132.362C132.632 27.7373 133.058 27.1277 133.641 26.6705C134.211 26.2589 134.826 26.0537 135.49 26.0537C135.726 26.0537 135.94 26.0705 136.13 26.1005V28.5401Z" fill="white"/>
<path d="M147.57 31.503C147.57 31.9614 147.54 32.3478 147.476 32.6634H139.801C139.831 33.801 140.202 34.671 140.914 35.271C141.561 35.8074 142.398 36.0762 143.425 36.0762C144.561 36.0762 145.598 35.895 146.53 35.5314L146.931 37.3074C145.842 37.7826 144.555 38.019 143.071 38.019C141.285 38.019 139.884 37.4934 138.864 36.4434C137.846 35.3934 137.336 33.9834 137.336 32.2146C137.336 30.4782 137.81 29.0322 138.759 27.879C139.753 26.6478 141.096 26.0322 142.785 26.0322C144.445 26.0322 145.701 26.6478 146.554 27.879C147.23 28.857 147.57 30.0666 147.57 31.503ZM145.13 30.8394C145.147 30.081 144.98 29.4258 144.633 28.8726C144.19 28.161 143.51 27.8058 142.594 27.8058C141.758 27.8058 141.078 28.1526 140.558 28.8486C140.132 29.4018 139.879 30.0654 139.801 30.8382L145.13 30.8394Z" fill="white"/>
<path d="M59.8433 12.0104C59.8433 13.4228 59.4197 14.486 58.5737 15.2C57.7901 15.8588 56.6765 16.1888 55.2341 16.1888C54.5189 16.1888 53.9069 16.1576 53.3945 16.0952V8.37804C54.0629 8.27004 54.7829 8.21484 55.5605 8.21484C56.9345 8.21484 57.9701 8.51364 58.6685 9.11124C59.4509 9.78684 59.8433 10.7528 59.8433 12.0104ZM58.5173 12.0452C58.5173 11.1296 58.2749 10.4276 57.7901 9.93804C57.3053 9.44964 56.5973 9.20484 55.6649 9.20484C55.2689 9.20484 54.9317 9.23124 54.6521 9.28644V15.1532C54.8069 15.1772 55.0901 15.188 55.5017 15.188C56.4641 15.188 57.2069 14.9204 57.7301 14.3852C58.2533 13.85 58.5173 13.07 58.5173 12.0452Z" fill="white"/>
<path d="M66.8724 13.2445C66.8724 14.1145 66.624 14.8273 66.1272 15.3865C65.6064 15.9613 64.9164 16.2481 64.0548 16.2481C63.2244 16.2481 62.5632 15.9733 62.07 15.4213C61.578 14.8705 61.332 14.1757 61.332 13.3381C61.332 12.4621 61.5852 11.7433 62.094 11.1853C62.6028 10.6273 63.2868 10.3477 64.1484 10.3477C64.9788 10.3477 65.646 10.6225 66.1512 11.1733C66.6312 11.7085 66.8724 12.3997 66.8724 13.2445ZM65.568 13.2853C65.568 12.7633 65.4552 12.3157 65.2308 11.9425C64.9668 11.4913 64.5912 11.2657 64.1028 11.2657C63.5976 11.2657 63.2136 11.4913 62.9496 11.9425C62.724 12.3157 62.6124 12.7705 62.6124 13.3081C62.6124 13.8301 62.7252 14.2777 62.9496 14.6509C63.222 15.1021 63.6012 15.3277 64.0908 15.3277C64.5708 15.3277 64.9476 15.0985 65.2188 14.6389C65.4516 14.2585 65.568 13.8073 65.568 13.2853Z" fill="white"/>
<path d="M76.3015 10.4629L74.5315 16.1197H73.3795L72.6463 13.6633C72.4603 13.0501 72.3091 12.4405 72.1915 11.8357H72.1687C72.0595 12.4573 71.9083 13.0657 71.7139 13.6633L70.9351 16.1197H69.7699L68.1055 10.4629H69.3979L70.0375 13.1521C70.1923 13.7881 70.3195 14.3941 70.4215 14.9677H70.4443C70.5379 14.4949 70.6927 13.8925 70.9111 13.1641L71.7139 10.4641H72.7387L73.5079 13.1065C73.6939 13.7509 73.8451 14.3713 73.9615 14.9689H73.9963C74.0815 14.3869 74.2099 13.7665 74.3803 13.1065L75.0667 10.4641H76.3015V10.4629Z" fill="white"/>
<path d="M82.8217 16.1193H81.5641V12.8793C81.5641 11.8809 81.1849 11.3817 80.4241 11.3817C80.0509 11.3817 79.7497 11.5186 79.5157 11.7934C79.2841 12.0682 79.1665 12.3921 79.1665 12.7629V16.1181H77.9089V12.079C77.9089 11.5821 77.8933 11.0434 77.8633 10.4602H78.9685L79.0273 11.3446H79.0621C79.2085 11.0698 79.4269 10.843 79.7137 10.6618C80.0545 10.4506 80.4361 10.3438 80.8537 10.3438C81.3817 10.3438 81.8209 10.5142 82.1701 10.8562C82.6045 11.275 82.8217 11.9002 82.8217 12.7306V16.1193Z" fill="white"/>
<path d="M86.2876 16.1196H85.0312V7.86719H86.2876V16.1196Z" fill="white"/>
<path d="M93.6927 13.2445C93.6927 14.1145 93.4443 14.8273 92.9475 15.3865C92.4267 15.9613 91.7355 16.2481 90.8751 16.2481C90.0435 16.2481 89.3823 15.9733 88.8903 15.4213C88.3983 14.8705 88.1523 14.1757 88.1523 13.3381C88.1523 12.4621 88.4055 11.7433 88.9143 11.1853C89.4231 10.6273 90.1071 10.3477 90.9675 10.3477C91.7991 10.3477 92.4651 10.6225 92.9715 11.1733C93.4515 11.7085 93.6927 12.3997 93.6927 13.2445ZM92.3871 13.2853C92.3871 12.7633 92.2743 12.3157 92.0499 11.9425C91.7871 11.4913 91.4103 11.2657 90.9231 11.2657C90.4167 11.2657 90.0327 11.4913 89.7699 11.9425C89.5443 12.3157 89.4327 12.7705 89.4327 13.3081C89.4327 13.8301 89.5455 14.2777 89.7699 14.6509C90.0423 15.1021 90.4215 15.3277 90.9111 15.3277C91.3911 15.3277 91.7667 15.0985 92.0379 14.6389C92.2719 14.2585 92.3871 13.8073 92.3871 13.2853Z" fill="white"/>
<path d="M99.7807 16.1197H98.6515L98.5579 15.4681H98.5231C98.1367 15.9877 97.5859 16.2481 96.8707 16.2481C96.3367 16.2481 95.9047 16.0765 95.5795 15.7357C95.2843 15.4261 95.1367 15.0409 95.1367 14.5837C95.1367 13.8925 95.4247 13.3657 96.0043 13.0009C96.5827 12.6361 97.3963 12.4573 98.4439 12.4657V12.3601C98.4439 11.6149 98.0527 11.2429 97.2691 11.2429C96.7111 11.2429 96.2191 11.3833 95.7943 11.6617L95.5387 10.8361C96.0643 10.5109 96.7135 10.3477 97.4791 10.3477C98.9575 10.3477 99.6991 11.1277 99.6991 12.6877V14.7709C99.6991 15.3361 99.7267 15.7861 99.7807 16.1197ZM98.4751 14.1757V13.3033C97.0879 13.2793 96.3943 13.6597 96.3943 14.4433C96.3943 14.7385 96.4735 14.9593 96.6355 15.1069C96.7975 15.2545 97.0039 15.3277 97.2499 15.3277C97.5259 15.3277 97.7839 15.2401 98.0191 15.0661C98.2555 14.8909 98.4007 14.6689 98.4547 14.3965C98.4679 14.3353 98.4751 14.2609 98.4751 14.1757Z" fill="white"/>
<path d="M106.923 16.1196H105.807L105.749 15.2112H105.714C105.357 15.9024 104.75 16.248 103.897 16.248C103.215 16.248 102.648 15.9804 102.198 15.4452C101.748 14.91 101.523 14.2152 101.523 13.362C101.523 12.4464 101.767 11.7048 102.257 11.1384C102.731 10.6104 103.311 10.3464 104.003 10.3464C104.762 10.3464 105.294 10.602 105.596 11.1144H105.62V7.86719H106.879V14.5956C106.879 15.1464 106.893 15.654 106.923 16.1196ZM105.62 13.734V12.7908C105.62 12.6276 105.608 12.4956 105.585 12.3948C105.515 12.0924 105.362 11.838 105.131 11.6328C104.897 11.4276 104.615 11.3244 104.289 11.3244C103.82 11.3244 103.453 11.5104 103.183 11.8836C102.915 12.2568 102.78 12.7332 102.78 13.3152C102.78 13.8744 102.908 14.328 103.166 14.6772C103.439 15.0492 103.806 15.2352 104.265 15.2352C104.678 15.2352 105.008 15.0804 105.259 14.7696C105.501 14.4828 105.62 14.1372 105.62 13.734Z" fill="white"/>
<path d="M117.681 13.2445C117.681 14.1145 117.433 14.8273 116.936 15.3865C116.415 15.9613 115.726 16.2481 114.863 16.2481C114.034 16.2481 113.373 15.9733 112.879 15.4213C112.387 14.8705 112.141 14.1757 112.141 13.3381C112.141 12.4621 112.394 11.7433 112.903 11.1853C113.411 10.6273 114.095 10.3477 114.958 10.3477C115.787 10.3477 116.456 10.6225 116.96 11.1733C117.44 11.7085 117.681 12.3997 117.681 13.2445ZM116.378 13.2853C116.378 12.7633 116.265 12.3157 116.041 11.9425C115.775 11.4913 115.401 11.2657 114.911 11.2657C114.407 11.2657 114.023 11.4913 113.758 11.9425C113.533 12.3157 113.421 12.7705 113.421 13.3081C113.421 13.8301 113.534 14.2777 113.758 14.6509C114.031 15.1021 114.41 15.3277 114.899 15.3277C115.379 15.3277 115.757 15.0985 116.029 14.6389C116.26 14.2585 116.378 13.8073 116.378 13.2853Z" fill="white"/>
<path d="M124.442 16.1193H123.185V12.8793C123.185 11.8809 122.806 11.3817 122.044 11.3817C121.671 11.3817 121.37 11.5186 121.137 11.7934C120.904 12.0682 120.788 12.3921 120.788 12.7629V16.1181H119.529V12.079C119.529 11.5821 119.514 11.0434 119.484 10.4602H120.588L120.647 11.3446H120.682C120.83 11.0698 121.048 10.843 121.334 10.6618C121.676 10.4506 122.056 10.3438 122.475 10.3438C123.002 10.3438 123.441 10.5142 123.79 10.8562C124.226 11.275 124.442 11.9002 124.442 12.7306V16.1193Z" fill="white"/>
<path d="M132.906 11.4045H131.521V14.1525C131.521 14.8509 131.767 15.2001 132.255 15.2001C132.48 15.2001 132.667 15.1809 132.815 15.1413L132.847 16.0953C132.599 16.1889 132.273 16.2357 131.871 16.2357C131.374 16.2357 130.987 16.0845 130.708 15.7821C130.427 15.4797 130.288 14.9709 130.288 14.2569V11.4045H129.461V10.4625H130.288V9.42571L131.52 9.05371V10.4613H132.905L132.906 11.4045Z" fill="white"/>
<path d="M139.565 16.1196H138.306V12.9036C138.306 11.8896 137.927 11.382 137.168 11.382C136.584 11.382 136.186 11.676 135.968 12.264C135.93 12.3876 135.909 12.5388 135.909 12.7164V16.1184H134.652V7.86719H135.909V11.2764H135.933C136.329 10.656 136.896 10.3464 137.632 10.3464C138.153 10.3464 138.584 10.5168 138.926 10.8588C139.352 11.2848 139.565 11.9184 139.565 12.756V16.1196Z" fill="white"/>
<path d="M146.432 13.0237C146.432 13.2493 146.415 13.4389 146.385 13.5937H142.613C142.63 14.1529 142.81 14.5789 143.159 14.8741C143.478 15.1381 143.89 15.2701 144.394 15.2701C144.952 15.2701 145.461 15.1813 145.919 15.0025L146.116 15.8761C145.58 16.1089 144.948 16.2253 144.218 16.2253C143.342 16.2253 142.652 15.9673 142.152 15.4513C141.651 14.9353 141.402 14.2429 141.402 13.3741C141.402 12.5209 141.634 11.8105 142.101 11.2441C142.588 10.6393 143.247 10.3369 144.078 10.3369C144.892 10.3369 145.51 10.6393 145.928 11.2441C146.265 11.7241 146.432 12.3181 146.432 13.0237ZM145.232 12.6985C145.241 12.3253 145.158 12.0037 144.988 11.7325C144.77 11.3833 144.437 11.2081 143.987 11.2081C143.577 11.2081 143.242 11.3785 142.986 11.7205C142.778 11.9929 142.654 12.3181 142.613 12.6985H145.232Z" fill="white"/>
</g>
<defs>
<clipPath id="clip0_929_270">
<rect width="162" height="48" fill="white" transform="translate(0.984375)"/>
</clipPath>
</defs>
</svg>
