<svg width="164" height="48" viewBox="0 0 164 48" fill="none" xmlns="http://www.w3.org/2000/svg">
<g clip-path="url(#clip0_929_302)">
<g clip-path="url(#clip1_929_302)">
<g clip-path="url(#clip2_929_302)">
<path fill-rule="evenodd" clip-rule="evenodd" d="M157.618 47.9988H7.01104C3.68949 47.9988 0.984375 45.2937 0.984375 41.9991V6.00071C0.984375 2.69412 3.68949 0.000976562 7.01104 0.000976562H157.618C160.936 0.000976562 163.644 2.69412 163.644 6.00071V41.9991C163.644 45.2937 160.936 47.9988 157.618 47.9988Z" fill="black"/>
<path d="M157.618 0.961532C160.404 0.961532 162.684 3.22677 162.684 6.00071V41.9991C162.684 44.773 160.419 47.0383 157.618 47.0383H7.01104C4.22513 47.0383 1.94493 44.773 1.94493 41.9991V6.00071C1.94493 3.22677 4.21016 0.961532 7.01104 0.961532H157.618ZM157.618 0.000976562H7.01104C3.68949 0.000976562 0.984375 2.70609 0.984375 6.00071V41.9991C0.984375 45.3057 3.68949 47.9988 7.01104 47.9988H157.618C160.936 47.9988 163.644 45.3057 163.644 41.9991V6.00071C163.644 2.70609 160.936 0.000976562 157.618 0.000976562Z" fill="black"/>
<path d="M86.6752 15.8784C85.5889 15.8784 84.6733 15.4984 83.9491 14.7503C83.2309 14.0231 82.83 13.0207 82.8479 11.9973C82.8479 10.9051 83.219 9.9804 83.9491 9.24727C84.6703 8.49917 85.586 8.11914 86.6722 8.11914C87.7465 8.11914 88.6621 8.49917 89.3983 9.24727C90.1284 10.0043 90.4994 10.929 90.4994 11.9973C90.4875 13.0925 90.1164 14.0171 89.3983 14.7473C88.6771 15.5014 87.7614 15.8784 86.6752 15.8784ZM54.3544 15.8784C53.2921 15.8784 52.3705 15.5043 51.6164 14.7652C50.8683 14.0291 50.4883 13.0985 50.4883 12.0003C50.4883 10.9021 50.8683 9.97143 51.6164 9.2353C52.3555 8.49618 53.2772 8.12213 54.3544 8.12213C54.8811 8.12213 55.3928 8.22687 55.8835 8.43933C56.3653 8.6458 56.7573 8.92708 57.0476 9.27121L57.1194 9.35799L56.3085 10.154L56.2247 10.0552C55.7668 9.5106 55.1534 9.24428 54.3425 9.24428C53.6183 9.24428 52.9869 9.50162 52.4662 10.0103C51.9426 10.522 51.6763 11.1923 51.6763 12.0033C51.6763 12.8142 51.9426 13.4845 52.4662 13.9962C52.9869 14.5049 53.6183 14.7622 54.3425 14.7622C55.1145 14.7622 55.7639 14.5049 56.2696 13.9962C56.5688 13.6969 56.7543 13.278 56.8202 12.7484H54.2198V11.6292H57.9363L57.9513 11.7309C57.9782 11.9195 58.0051 12.114 58.0051 12.2935C58.0051 13.3259 57.6939 14.1608 57.0775 14.7772C56.3773 15.5073 55.4616 15.8784 54.3544 15.8784ZM97.3281 15.7198H96.182L92.6719 10.1031L92.7018 11.1145V15.7168H91.5558V8.28073H92.8634L92.8993 8.33759L96.1999 13.6281L96.17 12.6197V8.28073H97.3281V15.7198ZM78.0631 15.7198H76.9021V9.39988H74.8882V8.28073H80.074V9.39988H78.0601V15.7198H78.0631ZM73.9426 15.7198H72.7845V8.28073H73.9426V15.7198ZM67.4342 15.7198H66.2761V9.39988H64.2622V8.28073H69.448V9.39988H67.4342V15.7198ZM63.5291 15.7078H59.0884V8.28073H63.5291V9.39988H60.2494V11.4407H63.2089V12.5479H60.2494V14.5887H63.5291V15.7078ZM84.799 13.9812C85.3166 14.4989 85.945 14.7592 86.6752 14.7592C87.4263 14.7592 88.0397 14.5049 88.5514 13.9812C89.0601 13.4725 89.3175 12.8052 89.3175 12.0003C89.3175 11.1953 89.0601 10.525 88.5544 10.0193C88.0367 9.50162 87.4053 9.24128 86.6782 9.24128C85.9271 9.24128 85.3136 9.49564 84.8049 10.0193C84.2962 10.528 84.0389 11.1953 84.0389 12.0003C84.0389 12.8052 84.2932 13.4755 84.799 13.9812Z" fill="white"/>
<path fill-rule="evenodd" clip-rule="evenodd" d="M82.7411 26.1061C79.9133 26.1061 77.6211 28.2516 77.6211 31.2111C77.6211 34.1436 79.9282 36.3161 82.7411 36.3161C85.5689 36.3161 87.861 34.1556 87.861 31.2111C87.861 28.2516 85.5689 26.1061 82.7411 26.1061ZM82.7411 34.2932C81.194 34.2932 79.8624 33.0125 79.8624 31.1991C79.8624 29.3588 81.197 28.105 82.7411 28.105C84.2881 28.105 85.6197 29.3588 85.6197 31.1991C85.6227 33.0244 84.2881 34.2932 82.7411 34.2932ZM71.5705 26.1061C68.7427 26.1061 66.4505 28.2516 66.4505 31.2111C66.4505 34.1436 68.7576 36.3161 71.5705 36.3161C74.3983 36.3161 76.6905 34.1556 76.6905 31.2111C76.6905 28.2516 74.3953 26.1061 71.5705 26.1061ZM71.5705 34.2932C70.0234 34.2932 68.6918 33.0125 68.6918 31.1991C68.6918 29.3588 70.0264 28.105 71.5705 28.105C73.1175 28.105 74.4492 29.3588 74.4492 31.1991C74.4492 33.0244 73.1175 34.2932 71.5705 34.2932ZM58.2783 27.6651V29.8256H63.4641C63.3055 31.0375 62.9045 31.9322 62.2911 32.5457C61.531 33.3057 60.358 34.1316 58.2903 34.1316C55.1034 34.1316 52.6107 31.5582 52.6107 28.3713C52.6107 25.1844 55.1034 22.6109 58.2903 22.6109C60.0109 22.6109 61.2647 23.2902 62.1953 24.158L63.7274 22.6259C62.4347 21.3871 60.7141 20.4385 58.3023 20.4385C53.9304 20.4385 50.2617 23.9994 50.2617 28.3593C50.2617 32.7312 53.9274 36.2802 58.3023 36.2802C60.6632 36.2802 62.4347 35.5081 63.8352 34.0538C65.2625 32.6265 65.7144 30.6126 65.7144 28.9877C65.7144 28.482 65.6755 28.0272 65.5947 27.6411H58.2753C58.2783 27.6382 58.2783 27.6651 58.2783 27.6651ZM112.647 29.3468C112.219 28.2007 110.926 26.0941 108.275 26.0941C105.648 26.0941 103.463 28.1618 103.463 31.1991C103.463 34.0658 105.624 36.3041 108.529 36.3041C110.863 36.3041 112.222 34.8767 112.782 34.0389L111.049 32.8778C110.474 33.7306 109.676 34.2902 108.541 34.2902C107.395 34.2902 106.593 33.7695 106.061 32.7432L112.886 29.9154C112.886 29.9183 112.647 29.3468 112.647 29.3468ZM105.687 31.0525C105.633 29.0805 107.219 28.078 108.353 28.078C109.248 28.078 109.993 28.5179 110.247 29.1583L105.687 31.0525ZM100.142 35.9989H102.383V21.001H100.142V35.9989ZM96.4611 27.2402H96.3803C95.8746 26.6387 94.9141 26.0941 93.6872 26.0941C91.1407 26.0941 88.7946 28.3354 88.7946 31.214C88.7946 34.0808 91.1287 36.2951 93.6872 36.2951C94.8991 36.2951 95.8746 35.7475 96.3803 35.1341H96.4611V35.8672C96.4611 37.8152 95.4198 38.8656 93.7411 38.8656C92.3676 38.8656 91.5147 37.8781 91.1676 37.0522L89.2196 37.8661C89.7791 39.2127 91.2723 40.8794 93.7381 40.8794C96.3654 40.8794 98.5917 39.3324 98.5917 35.559V26.3993H96.4731V27.2402C96.4761 27.2402 96.4611 27.2402 96.4611 27.2402ZM93.8877 34.2932C92.3406 34.2932 91.0479 33.0005 91.0479 31.214C91.0479 29.4126 92.3406 28.108 93.8877 28.108C95.4198 28.108 96.6078 29.4276 96.6078 31.214C96.6227 33.0005 95.4228 34.2932 93.8877 34.2932ZM123.141 21.001H117.782V35.9989H120.023V30.3193H123.144C125.625 30.3193 128.064 28.5209 128.064 25.6662C128.064 22.8114 125.634 21.001 123.141 21.001ZM123.207 28.2247H120.02V23.0778H123.207C124.886 23.0778 125.834 24.4632 125.834 25.6512C125.834 26.8272 124.874 28.2247 123.207 28.2247ZM137.047 26.0791C135.419 26.0791 133.74 26.8003 133.046 28.3713L135.033 29.1972C135.461 28.3713 136.245 28.09 137.074 28.09C138.235 28.09 139.408 28.7842 139.435 30.0231V30.1817C139.034 29.9543 138.154 29.6071 137.101 29.6071C134.955 29.6071 132.78 30.7802 132.78 32.9796C132.78 34.9934 134.539 36.2861 136.499 36.2861C138.004 36.2861 138.833 35.6069 139.351 34.8199H139.432V35.9809H141.592V30.2355C141.592 27.5604 139.605 26.0791 137.047 26.0791ZM136.766 34.2932C136.032 34.2932 135.006 33.9341 135.006 33.0125C135.006 31.8514 136.287 31.4115 137.379 31.4115C138.366 31.4115 138.833 31.624 139.42 31.9173C139.258 33.2638 138.121 34.2812 136.766 34.2932ZM149.474 26.3993L146.901 32.9047H146.82L144.154 26.3993H141.742L145.743 35.4932L143.463 40.5473H145.797L151.952 26.3993H149.474ZM129.3 35.9989H131.541V21.001H129.3V35.9989Z" fill="white"/>
<path d="M13.5046 9.04076C13.1575 9.4148 12.957 9.98635 12.957 10.7344V37.2679C12.957 38.016 13.1575 38.5876 13.5166 38.9466L13.6094 39.0274L28.4755 24.1613V23.8291L13.5974 8.95996L13.5046 9.04076Z" fill="white" stroke="black" stroke-width="0.0598477"/>
<path d="M33.4232 29.132L28.4648 24.1737V23.8265L33.4232 18.8682L33.5309 18.934L39.396 22.2675C41.0747 23.2131 41.0747 24.7751 39.396 25.7327L33.5309 29.0662L33.4232 29.132Z" fill="white" stroke="black" stroke-width="0.0598477"/>
<path d="M33.5289 29.0661L28.4628 24L13.5039 38.9589C14.0515 39.5454 14.9702 39.6113 15.9966 39.0397L33.5289 29.0661Z" fill="white" stroke="black" stroke-width="0.0598477"/>
<path d="M33.5289 18.9335L15.9966 8.97481C14.9702 8.3883 14.0485 8.46909 13.5039 9.0556L28.4628 23.9996L33.5289 18.9335Z" fill="white" stroke="black" stroke-width="0.0598477"/>
<path opacity="0.2" fill-rule="evenodd" clip-rule="evenodd" d="M33.421 28.958L16.0083 38.8508C15.0358 39.4104 14.168 39.3715 13.6084 38.8628L13.5156 38.9556L13.6084 39.0364C14.168 39.5421 15.0358 39.584 16.0083 39.0244L33.5407 29.0657L33.421 28.958Z" fill="black"/>
<path opacity="0.12" fill-rule="evenodd" clip-rule="evenodd" d="M39.394 25.559L33.4062 28.9584L33.514 29.0661L39.379 25.7326C40.2199 25.2538 40.6329 24.6254 40.6329 24C40.582 24.5745 40.1541 25.1192 39.394 25.559Z" fill="black"/>
<path opacity="0.25" fill-rule="evenodd" clip-rule="evenodd" d="M15.9973 9.14871L39.3947 22.4409C40.1548 22.8688 40.5827 23.4284 40.6486 23.9999C40.6486 23.3745 40.2356 22.7461 39.3947 22.2673L15.9973 8.97515C14.3186 8.01459 12.957 8.81655 12.957 10.7347V10.9082C12.957 8.98712 14.3186 8.20012 15.9973 9.14871Z" fill="white"/>
</g>
</g>
</g>
<defs>
<clipPath id="clip0_929_302">
<rect width="162.66" height="48" fill="white" transform="translate(0.984375)"/>
</clipPath>
<clipPath id="clip1_929_302">
<rect width="162.66" height="48" fill="white" transform="translate(0.984375)"/>
</clipPath>
<clipPath id="clip2_929_302">
<rect width="162.66" height="47.9978" fill="white" transform="translate(0.984375 0.000976562)"/>
</clipPath>
</defs>
</svg>
